<?xml version="1.0" encoding="UTF-8"?>
<svg id="Layer_2" data-name="Layer 2" xmlns="http://www.w3.org/2000/svg" viewBox="0 0 143.87 20.2">
  <defs>
    <style>
      .cls-1 {
        fill: #7038ff;
      }
    </style>
  </defs>
  <g id="Layer_1-2" data-name="Layer 1">
    <g>
      <path class="cls-1" d="m19.67,1.19c-.71-.71-1.72-1.13-2.79-1.13H5.82C4.81.06,3.8.48,3.03,1.19l-1.9,1.9c-.71.71-1.13,1.72-1.13,2.79v8.5c0,1.01.42,2.02,1.13,2.79l1.9,1.9c.71.71,1.72,1.13,2.79,1.13h11.05c1.01,0,2.02-.42,2.79-1.13l1.9-1.9c.71-.71,1.13-1.72,1.13-2.79V5.88c0-1.01-.42-2.02-1.13-2.79l-1.9-1.9Zm-.12,15.27c0,.3-.24.53-.53.53H3.62c-.3,0-.53-.24-.53-.53V3.68c0-.3.24-.53.53-.53h15.39c.3,0,.53.24.53.53v12.77Z"/>
      <path class="cls-1" d="m44.68,1.19c-.71-.71-1.72-1.13-2.79-1.13h-11.05c-1.01,0-2.02.42-2.79,1.13l-1.9,1.9c-.71.71-1.13,1.72-1.13,2.79v13.72c0,.3.24.53.53.53h2.08c.3,0,.53-.24.53-.53V3.68c0-.3.24-.53.53-.53h15.39c.3,0,.53.24.53.53v15.86c0,.3.24.53.53.53h2.08c.3,0,.53-.24.53-.53V5.82c0-1.01-.42-2.02-1.13-2.79l-1.96-1.84Z"/>
      <path class="cls-1" d="m120.26,14.85h-1.9c-.3,0-.53.24-.53.53v1.07c0,.3-.24.53-.53.53h-14.38c-.3,0-.53-.24-.53-.53v-2.08c0-.3.24-.53.53-.53h12.18c1.01,0,2.02-.42,2.79-1.13l1.9-1.9c.71-.71,1.13-1.72,1.13-2.79v-2.2c0-1.01-.42-2.02-1.13-2.79l-1.9-1.9c-.71-.71-1.72-1.13-2.79-1.13h-10.04c-1.01,0-2.02.42-2.79,1.13l-1.9,1.9c-.71.71-1.13,1.72-1.13,2.79v8.5c0,1.01.42,2.02,1.13,2.79l1.9,1.9c.71.71,1.72,1.13,2.79,1.13h10.04c1.01,0,2.02-.42,2.73-1.13l1.9-1.9c.42-.42.77-.95.95-1.54.18-.36-.06-.71-.42-.71Zm-17.82-11.17c0-.3.24-.53.53-.53h14.32c.3,0,.53.24.53.53v6.48c0,.3-.24.53-.53.53h-14.32c-.3,0-.53-.24-.53-.53V3.68Z"/>
      <path class="cls-1" d="m68.74,1.19c-.71-.71-1.72-1.13-2.79-1.13h-10.04c-1.01,0-2.02.42-2.79,1.13l-1.9,1.9c-.71.71-1.13,1.72-1.13,2.79v8.5c0,1.01.42,2.02,1.13,2.79l1.9,1.9c.71.71,1.72,1.13,2.79,1.13h10.04c1.01,0,2.02-.42,2.73-1.13l1.9-1.9c.42-.42.77-.95.95-1.54.12-.36-.12-.71-.48-.71h-1.9c-.3,0-.53.24-.53.53v1.07c0,.3-.24.53-.53.53h-14.38c-.3,0-.53-.24-.53-.53v-2.14c0-.3.24-.53.53-.53h12.18c1.01,0,2.02-.42,2.79-1.13l1.9-1.9c.71-.71,1.13-1.72,1.13-2.79v-2.2c0-1.01-.42-2.02-1.13-2.79l-1.84-1.84Zm-.12,8.97c0,.3-.24.53-.53.53h-14.32c-.3,0-.53-.24-.53-.53V3.68c0-.3.24-.53.53-.53h14.32c.3,0,.53.24.53.53v6.48Z"/>
      <path class="cls-1" d="m93.88,1.19c-.71-.71-1.72-1.13-2.79-1.13h-11.05c-1.01,0-2.02.42-2.79,1.13l-1.9,1.9c-.71.71-1.13,1.72-1.13,2.79v13.72c0,.3.24.53.53.53h2.08c.3,0,.53-.24.53-.53V3.68c0-.3.24-.53.53-.53h15.39c.3,0,.53.24.53.53v15.86c0,.3.24.53.53.53h2.08c.3,0,.53-.24.53-.53V5.82c0-1.01-.42-2.02-1.13-2.79l-1.96-1.84Z"/>
      <path class="cls-1" d="m134.51,10.28c-.12-.12-.12-.3,0-.36l9.27-9.27c.18-.18.06-.53-.24-.53h-2.97c-.18,0-.42.06-.53.24l-7.61,7.61c-.12.12-.24.12-.36,0l-7.61-7.61c-.12-.12-.36-.24-.53-.24h-2.97c-.3,0-.42.36-.24.53l9.27,9.27c.12.12.12.3,0,.36l-9.27,9.27c-.18.18-.06.53.24.53h2.97c.18,0,.42-.06.53-.24l7.61-7.61c.12-.12.24-.12.36,0l7.61,7.61c.12.12.36.24.53.24h2.97c.3,0,.42-.36.24-.53l-9.27-9.27Z"/>
    </g>
  </g>
</svg>